<?xml version="1.0" encoding="utf-8"?>
<!-- Generator: Adobe Illustrator 16.0.0, SVG Export Plug-In . SVG Version: 6.00 Build 0)  -->
<svg version="1.2" baseProfile="tiny" id="Layer_1" xmlns="http://www.w3.org/2000/svg" xmlns:xlink="http://www.w3.org/1999/xlink"
	 viewBox="0 0 1280 300" xml:space="preserve">
<g>
	<g>
		<rect x="89.045" y="79.627" fill="#FFD101" width="20.748" height="70.174"/>
		<polygon fill="#DC2B26" points="33.836,122.439 86.575,218.332 86.575,182.178 33.836,86.231 		"/>
		<rect x="10.618" y="191.646" fill="#252B67" width="20.601" height="32.467"/>
		<path d="M89.045,79.627h-2.47v72.141v24.351L33.516,79.627l-2.298-0.205v38.242L10.3,79.627L8,79.422v108.795v3.43v32.467h1.143
			h1.475v-32.467h20.601v32.467h1.315h1.302V128.47l52.579,95.644h2.63v-37.456l20.588,37.456h2.63V79.627h-1.094h-1.376v70.174
			H89.045V79.627z M31.218,188.217H10.618V86.231l20.601,37.461V188.217z M86.575,218.332l-52.739-95.893V86.231l52.739,95.946
			V218.332z M109.793,153.737v64.595l-20.748-37.739v-26.855H109.793z"/>
	</g>
	<path fill="#FFD101" d="M139.391,147.179l0.017,0.09c0-0.072,0.006-0.146,0.006-0.221L139.391,147.179z"/>
	<g>
		<path fill="#252B67" d="M260.843,99.853c-10.173-13.008-24.282-21.055-39.705-21.055c-1.726,0-3.418,0.135-5.105,0.333
			c8.91,3.659,16.889,9.938,23.395,18.241c3.341,4.273,6.296,9.075,8.778,14.288h20.081
			C266.13,107.396,263.639,103.432,260.843,99.853z"/>
		<path fill="#DC2B26" d="M158.381,199.751c10.173,13.003,24.117,21.057,39.545,21.057c1.742,0,3.462-0.136,5.172-0.336
			c-8.899-3.66-16.899-9.934-23.296-18.24c-3.721-4.755-6.963-10.177-9.604-16.082h-20.187
			C152.376,191.106,155.193,195.674,158.381,199.751z"/>
		<path fill="#FFD101" d="M141.982,149.801h20.594c0-20.434,6.722-39.009,17.225-52.429c6.397-8.304,14.397-14.578,23.296-18.237
			c-1.709-0.202-3.43-0.337-5.172-0.337c-15.428,0-29.372,8.047-39.545,21.055C148.379,112.648,141.982,130.197,141.982,149.801z"/>
		<path fill="#FFD101" d="M173.224,186.149h71.011h1.726c4.934-10.437,7.807-22.626,7.89-35.754h-88.639
			C165.295,163.523,168.245,175.713,173.224,186.149z"/>
		<path d="M197.926,224.107c3.986,0,7.885-0.51,11.645-1.462c3.744,0.952,7.62,1.462,11.567,1.462
			c16.244,0,30.839-8.258,41.508-21.876c10.498-13.418,17.225-31.993,17.225-52.431c0-20.434-6.727-39.009-17.225-52.429
			c-10.669-13.618-25.264-21.877-41.508-21.877c-3.948,0-7.824,0.511-11.567,1.465c-3.76-0.954-7.659-1.465-11.645-1.465
			c-16.084,0-30.85,8.259-41.348,21.877c-10.023,12.813-16.591,30.333-17.164,49.676c0,0.075-0.006,0.148-0.006,0.221
			c-0.022,0.84-0.049,1.684-0.049,2.532c0,20.438,6.721,39.013,17.219,52.431C167.076,215.85,181.842,224.107,197.926,224.107z
			 M209.543,219.229c-10.763-2.923-20.39-9.827-27.943-19.479c-2.438-3.117-4.659-6.521-6.628-10.171h69.258
			c-1.957,3.649-4.168,7.054-6.605,10.171C230.076,209.402,220.355,216.307,209.543,219.229z M246.7,115.087L246.7,115.087v0.004
			c4.229,9.517,6.783,20.405,7.113,32.088h-88.562c0.342-11.683,2.95-22.571,7.229-32.088h66.897h7.322l0,0V115.087z
			 M253.852,150.396c-0.083,13.128-2.956,25.317-7.89,35.754h-1.726h-71.011c-4.979-10.437-7.929-22.626-8.011-35.754H253.852z
			 M277.081,149.801c0,19.612-6.23,37.156-16.238,49.95c-10.173,13.003-24.282,21.057-39.705,21.057
			c-1.726,0-3.418-0.136-5.105-0.332c8.91-3.659,16.889-9.938,23.395-18.244c10.499-13.418,17.219-31.993,17.219-52.431
			c0-12.521-2.531-24.343-6.903-34.71h20.175C274.462,125.319,277.081,137.124,277.081,149.801z M221.138,78.798
			c15.422,0,29.532,8.047,39.705,21.055c2.796,3.579,5.288,7.544,7.444,11.808h-20.081c-2.481-5.213-5.437-10.015-8.778-14.288
			c-6.506-8.304-14.485-14.582-23.395-18.241C217.72,78.933,219.413,78.798,221.138,78.798z M237.624,99.853
			c2.801,3.579,5.294,7.544,7.444,11.808h-5.691h-65.255c2.178-4.264,4.681-8.229,7.477-11.808
			c7.554-9.649,17.18-16.553,27.943-19.483C220.355,83.3,230.076,90.203,237.624,99.853z M141.982,149.801
			c0-19.604,6.397-37.152,16.398-49.948c10.173-13.008,24.117-21.055,39.545-21.055c1.742,0,3.462,0.135,5.172,0.337
			c-8.899,3.659-16.899,9.934-23.296,18.237c-10.503,13.42-17.225,31.995-17.225,52.429c0,13.188,2.812,25.595,7.621,36.349
			c2.641,5.905,5.883,11.327,9.604,16.082c6.397,8.307,14.397,14.58,23.296,18.24c-1.709,0.2-3.43,0.336-5.172,0.336
			c-15.428,0-29.372-8.054-39.545-21.057c-3.188-4.077-6.004-8.645-8.37-13.602C144.955,175.557,141.982,163.162,141.982,149.801z"
			/>
	</g>
	<g>
		<rect x="309.115" y="186.725" fill="#DC2B26" width="20.755" height="29.366"/>
		<rect x="309.115" y="77.799" fill="#21255E" width="20.755" height="30.999"/>
		<path d="M333.553,77.799h17.038v-2.893c-7.719,0-9.28,0-17.038,0c-9.39,0-18.778,0-28.119,0c-7.756,0-9.317,0-17.036,0v2.893
			h17.036h1.216v30.999h-14.662v3.434h14.662v71.056h-14.662v3.438h14.662v29.366h-1.216h-17.036v3.097c7.719,0,9.28,0,17.036,0
			c0.694,0,1.396,0,2.088,0h23.797c0.744,0,1.489,0,2.233,0c7.758,0,9.318,0,17.038,0v-3.097h-17.038h-1.227v-29.366h14.686v-3.438
			h-14.686v-71.056h14.785v-3.434h-14.785V77.799H333.553z M329.87,216.091h-20.755v-29.366h20.755V216.091z M329.87,183.287
			h-20.755v-71.056h20.755V183.287z M329.87,108.798h-20.755V77.799h20.755V108.798z"/>
	</g>
	<g>
		<path fill="#DD2C27" d="M422.909,219.125c2.173,0.394,4.333,0.608,6.429,0.608c16.497,0,34.097-11.096,37.107-31.063h-20.45
			C443.96,203.444,434.477,213.941,422.909,219.125z"/>
		<path fill="#252B67" d="M406.12,219.733c2.172,0,4.361-0.231,6.54-0.608c-11.039-5.018-20.544-15.119-22.353-30.127h-20.567
			C372.463,209.425,390.989,219.733,406.12,219.733z"/>
		<path fill="#FFD101" d="M396.525,92.998c1.676-2.729,3.672-5.127,5.889-7.229c0.011-0.028,0.033-0.066,0.033-0.066
			s0.022-0.003,0.045-0.006c3.004-2.838,6.417-5.121,10.09-6.813c-2.382-0.392-4.78-0.593-7.112-0.544
			c-10.83,0.208-23.136,5.158-30.029,16.515c-3.131,4.883-4.725,10.488-5.089,16.452h20.709
			C391.42,104.723,393.223,98.426,396.525,92.998z"/>
		<path fill="#FFD101" d="M391.111,117.144c-0.061-0.801-0.077-1.602-0.099-2.403h-20.726c0.011,0.729,0.022,1.46,0.066,2.201
			c1.831,31.293,27.21,28.045,48.163,31.979l-0.027-0.226C404.366,145.901,392.34,139.641,391.111,117.144z"/>
		<path fill="#FFD101" d="M411.964,82.606c-0.91,0.464-1.797,0.971-2.668,1.523C409.896,83.775,410.867,83.221,411.964,82.606z"/>
		<path d="M366.911,187.529c0.033,0.407,0.083,0.798,0.132,1.197l0.022,0.271h0.005c2.679,22.354,22.501,33.829,38.888,33.829
			c3.959,0,7.962-0.619,11.832-1.783c3.81,1.161,7.687,1.783,11.387,1.783c21.812,0,44.948-18.166,39.698-48.713
			c-7.879-46.239-72.351-6.605-75.307-57.173c-0.49-8.054,0.981-15.69,5.089-22.087c2.796-4.613,6.506-8.131,10.636-10.725
			c0.871-0.553,1.758-1.06,2.668-1.523c1.925-0.988,3.909-1.812,5.928-2.442c6.208,1.992,12.02,5.658,16.281,11.389
			c3.281,4.539,5.25,9.698,6.236,15.684l0.43,4.07l0.271,3.434h25.799l-0.188-2.105h0.027l-0.148-1.321v-0.007l-0.513-4.69
			c-3.904-26.116-28.159-35.671-48.135-29.758c-15.929-4.846-35.172,0.715-44.646,16.14c-4.262,7.018-6.065,15.478-5.414,24.146
			c2.95,53.876,67.759,14.655,75.136,57.59c3.821,23.061-9.418,38.099-25.154,43.123c-12.091-3.906-23.384-13.935-25.032-30.022
			L392.561,185h-25.81l0.082,1.072l-0.082,0.012L366.911,187.529z M428.682,78.34c10.333-0.207,21.653,3.712,28.705,13.213
			c3.286,4.539,5.26,9.698,6.242,15.684l0.502,4.07h-20.771l-0.491-4.69c-2.068-13.833-9.854-23.015-19.679-27.721
			C425.037,78.594,426.878,78.375,428.682,78.34z M375.44,94.854c6.893-11.356,19.199-16.307,30.029-16.515
			c2.332-0.049,4.73,0.152,7.112,0.544c-3.673,1.692-7.085,3.976-10.09,6.813c-0.028,0.023-0.05,0.048-0.078,0.072
			c-2.216,2.102-4.212,4.499-5.889,7.229c-3.303,5.428-5.105,11.725-5.464,18.309h-20.709
			C370.715,105.343,372.309,99.737,375.44,94.854z M418.514,148.92c-20.952-3.934-46.332-0.686-48.163-31.979
			c-0.044-0.741-0.055-1.473-0.066-2.201h20.726c0.022,0.802,0.038,1.603,0.099,2.403c1.229,22.497,13.255,28.758,27.376,31.551
			c19.69,3.894,43.465,1.033,47.76,26.039c0.613,3.712,0.778,7.217,0.574,10.504h-20.495c0.199-3.498,0.006-7.205-0.667-11.123
			C442.654,156.488,431.422,151.346,418.514,148.92z M445.995,188.67h20.45c-3.01,19.968-20.611,31.063-37.107,31.063
			c-2.096,0-4.256-0.215-6.429-0.608C434.477,213.941,443.96,203.444,445.995,188.67z M390.306,188.998
			c1.809,15.008,11.314,25.109,22.353,30.127c-2.179,0.377-4.367,0.608-6.54,0.608c-15.13,0-33.656-10.309-36.38-30.735H390.306z"/>
	</g>
	<g>
		<polygon fill="#FFD101" points="516.208,151.106 552.38,151.106 575.596,151.106 575.596,118.047 516.208,118.047 		"/>
		<rect x="492.99" y="83.817" fill="#21255E" width="20.601" height="30.796"/>
		<rect x="492.99" y="154.406" fill="#DC2B26" width="20.601" height="34.698"/>
		<path d="M553.695,83.817h23.218v-3.099h-23.218h-40.104h-23.219v33.895v3.434v71.058v3.436v32.458h0.32h22.899h0.326h40.104
			h23.218v-3.095h-23.218h-37.812V192.54h59.388v-3.436h-59.388v-34.698h36.172h23.215v-1.689v-1.61H552.38h-36.172v-33.06h59.388
			v-2.315v-1.118h-59.388V83.817H553.695z M492.99,83.817h20.601v30.796H492.99V83.817z M492.99,118.047h20.601v33.06H492.99
			V118.047z M492.99,154.406h20.601v34.698H492.99V154.406z"/>
	</g>
</g>
<g>
	<g>
		<rect x="713.59" y="190.502" fill="#FFD101" width="20.761" height="29.079"/>
		<rect x="713.59" y="81.212" fill="#DC2B26" width="20.761" height="30.799"/>
		<path d="M694.65,77.914h-23.219v3.298h23.219h16.48v30.799h-39.699v3.431h39.699v32.749h-39.699v3.435h39.699v67.956v3.436h2.459
			h20.761h2.459v-3.436v-67.956h39.699v-3.435H736.81v-32.749h39.699v-3.431H736.81V81.212h16.48h23.219v-3.298H753.29H694.65z
			 M713.59,81.212h20.761v30.799H713.59V81.212z M713.59,115.441h20.761v32.749H713.59V115.441z M713.59,219.581v-29.079v-38.877
			h20.761v38.877v29.079H713.59z"/>
	</g>
	<g>
		<rect x="880.696" y="77.271" fill="#242963" width="20.6" height="33.893"/>
		<rect x="822.979" y="149.93" fill="#FFD101" width="55.099" height="35.726"/>
		<rect x="799.761" y="114.598" fill="#DC2B26" width="20.759" height="32.238"/>
		<rect x="799.761" y="189.09" fill="#FFD101" width="20.759" height="32.462"/>
		<path d="M797.301,77.271v144.28h2.106h0.354V189.09h20.759v32.462h2.459V189.09h7.052h45.847h2.2v32.462h2.619V189.09h20.6v32.462
			h2.619V77.271h-1.12h-1.499v33.893h-20.6V77.271h-1.059h-1.561v33.893h-55.099V77.271h-2.459v33.893h-20.759V77.271H797.301z
			 M799.761,185.655V149.93h20.759v35.726H799.761z M880.696,114.598h20.6v32.238h-20.6V114.598z M822.979,114.598h55.099v32.238
			h-55.099V114.598z M822.979,149.93h55.099v35.726h-2.2H830.03h-7.052V149.93z M820.52,114.598v32.238h-20.759v-32.238H820.52z"/>
	</g>
	<g>
		<rect x="946.123" y="186.512" fill="#DC2B26" width="20.754" height="29.365"/>
		<rect x="946.123" y="77.586" fill="#21255E" width="20.754" height="30.999"/>
		<path d="M970.56,77.586h17.038v-2.894c-7.72,0-9.279,0-17.038,0c-9.39,0-18.78,0-28.12,0c-7.755,0-9.315,0-17.034,0v2.894h17.034
			h1.219v30.999h-14.664v3.433h14.664v71.057h-14.664v3.438h14.664v29.365h-1.219h-17.034v3.099c7.719,0,9.279,0,17.034,0
			c0.695,0,1.396,0,2.09,0h23.798c0.744,0,1.488,0,2.232,0c7.759,0,9.318,0,17.038,0v-3.099H970.56h-1.227v-29.365h14.686v-3.438
			h-14.686v-71.057h14.785v-3.433h-14.785V77.586H970.56z M966.877,215.877h-20.754v-29.365h20.754V215.877z M966.877,183.074
			h-20.754v-71.057h20.754V183.074z M966.877,108.585h-20.754V77.586h20.754V108.585z"/>
	</g>
	<g>
		<rect x="1092.921" y="72.627" fill="#FFD101" width="20.749" height="70.174"/>
		<polygon fill="#DC2B26" points="1037.712,115.441 1090.45,211.333 1090.45,175.177 1037.712,79.231 		"/>
		<rect x="1014.493" y="184.647" fill="#252B67" width="20.6" height="32.467"/>
		<path d="M1092.921,72.627h-2.471v72.142v24.349l-53.059-96.49l-2.299-0.205v38.242l-20.919-38.037l-2.3-0.205v108.795v3.431
			v32.467h1.145h1.475v-32.467h20.6v32.467h1.317h1.302v-95.646l52.579,95.646h2.63v-37.459l20.588,37.459h2.632V72.627h-1.096
			h-1.375v70.174h-20.749V72.627z M1035.093,181.217h-20.6V79.231l20.6,37.462V181.217z M1090.45,211.333l-52.738-95.892v-36.21
			l52.738,95.945V211.333z M1113.67,146.737v64.596l-20.749-37.742v-26.854H1113.67z"/>
	</g>
	<g>
		<path fill="#DC2B26" d="M1155.819,203.94c9.843,13.005,23.13,20.849,38.062,20.849c1.753,0,3.517-0.174,5.282-0.439
			c-6.154-2.747-11.833-6.838-16.834-11.995l-0.043-0.033l-0.029-0.036c-1.764-1.833-3.444-3.785-5.028-5.869
			c-2.838-3.749-5.375-7.929-7.57-12.438h-20.097C1151.424,197.558,1153.52,200.894,1155.819,203.94z"/>
		<path fill="#242963" d="M1177.229,102.39c6.159-8.122,13.774-14.312,22.276-17.965c-1.863-0.24-3.733-0.405-5.624-0.405
			c-14.932,0-28.219,8.05-38.062,20.845c-8.326,11.194-14.01,25.867-15.307,42.355h20.595
			C1162.418,129.847,1168.424,114.199,1177.229,102.39z"/>
		<path fill="#FFD101" d="M1231.573,208.602c-6.087,6.87-13.294,12.285-20.738,15.68c2.058,0.305,4.136,0.508,6.258,0.508
			c22.978,0,47.414-22.91,51.682-53.461h-20.263c-0.48,3.78-1.312,7.465-2.466,11.148c-1.896,6.646-4.862,12.83-8.54,18.385
			l-0.314,0.861l-2.243,2.761c-1.01,1.338-2.058,2.632-3.15,3.876l-0.164,0.194L1231.573,208.602z"/>
		<path d="M1193.881,228.301c3.622,0,7.371-0.639,11.109-1.784c3.91,1.134,7.951,1.784,12.103,1.784
			c20.512,0,44.63-19.406,52.173-45.824c1.482-4.749,2.464-9.499,2.789-14.446h-23.218h-30.757h-23.218v3.298h23.218h27.477
			c-0.961,6.86-2.957,13.307-5.701,19.216h-68.752c-4.824-10.524-7.653-22.899-7.653-36.14c0-19.405,6.071-36.741,15.587-49.54
			c7.252-9.43,16.388-16.248,26.66-19.202c16.393,4.608,30.523,18.734,36.902,39.638h0.194h2.597h20.429h2.789l-1.097-3.626h-0.039
			c-8.371-25.313-28.76-40.956-50.38-40.956c-3.953,0-7.817,0.542-11.551,1.558c-3.804-1.005-7.707-1.558-11.661-1.558
			c-15.588,0-29.697,8.254-39.87,21.672c-10.002,13.418-16.397,31.787-16.397,52.015c0,20.434,6.396,38.803,16.397,52.012
			C1164.184,219.838,1178.293,228.301,1193.881,228.301z M1217.093,84.02c20.153,0,38.939,14.048,47.485,37.654h-20.285
			c-5.999-18.152-18.196-31.289-32.592-37.292C1213.472,84.146,1215.279,84.02,1217.093,84.02z M1246.046,182.477
			c1.153-3.684,1.985-7.368,2.466-11.148h20.263c-4.268,30.551-28.704,53.461-51.682,53.461c-2.122,0-4.2-0.203-6.258-0.508
			c7.444-3.395,14.651-8.81,20.738-15.68c0.07-0.083,0.148-0.158,0.225-0.242c1.093-1.244,2.141-2.538,3.15-3.876
			c0.887-1.176,1.741-2.381,2.558-3.622C1241.184,195.307,1244.149,189.123,1246.046,182.477z M1238.156,193.979
			c-7.709,14.392-20.043,24.994-33.05,29c-10.029-2.991-18.956-9.639-26.069-19.038c-2.298-3.047-4.394-6.383-6.258-9.962H1238.156z
			 M1155.819,104.864c9.843-12.795,23.13-20.845,38.062-20.845c1.891,0,3.761,0.165,5.624,0.405
			c-8.502,3.652-16.117,9.843-22.276,17.965c-8.805,11.81-14.811,27.457-16.121,44.83h-20.595
			C1141.81,130.731,1147.493,116.059,1155.819,104.864z M1140.237,154.404c0-1.335,0.033-2.656,0.089-3.971h20.588
			c-0.056,1.316-0.082,2.64-0.082,3.971c0,13.185,2.674,25.504,7.249,36.14h-20.195
			C1143.066,180.02,1140.237,167.645,1140.237,154.404z M1169.658,193.979c2.195,4.509,4.732,8.688,7.57,12.438
			c1.584,2.084,3.265,4.036,5.028,5.869c0.029,0.021,0.052,0.043,0.072,0.069c5.001,5.157,10.68,9.248,16.834,11.995
			c-1.766,0.266-3.529,0.439-5.282,0.439c-14.932,0-28.219-7.844-38.062-20.849c-2.3-3.047-4.396-6.383-6.258-9.962H1169.658z"/>
	</g>
</g>
</svg>
